<svg width="643" height="90" viewBox="0 0 643 90" fill="none" xmlns="http://www.w3.org/2000/svg">
<rect x="103.556" width="5" height="6" fill="#F5F5F5"/>
<path d="M370.235 9.88205L380.965 32.7262C381.412 33.6348 382.53 34.154 383.647 33.9593C384.765 33.7646 385.51 32.9209 385.51 31.8826V20.4605H398.625C399.817 20.4605 400.785 19.8115 401.009 18.838C401.232 17.8645 400.636 16.8911 399.593 16.5017L373.365 7.15632C372.471 6.83183 371.427 7.02652 370.757 7.61061C370.086 8.19469 369.863 9.10327 370.235 9.88205Z" fill="#8B9A7A"/>
<path fill-rule="evenodd" clip-rule="evenodd" d="M357.455 32.2617C361.265 32.2619 364.441 33.1996 366.98 35.0791C369.52 36.9587 371.426 39.5245 372.696 42.7754C374.017 45.9759 374.677 49.5844 374.677 53.5977C374.677 57.5604 374.017 61.1684 372.696 64.4199C371.426 67.6707 369.495 70.2365 366.905 72.1162C364.365 73.9958 361.185 74.9385 357.375 74.9385C355.395 74.9382 353.541 74.5819 351.814 73.8711C350.087 73.109 348.586 72.0651 347.315 70.7441C346.66 70.0337 346.104 69.247 345.64 68.3896V85.4521H334.209V33.1738H345.186L345.345 39.3877C346.348 37.4048 347.717 35.8154 349.45 34.6211C351.736 33.0461 354.407 32.2617 357.455 32.2617ZM354.253 41.0244C352.475 41.0244 350.925 41.5058 349.604 42.4707C348.334 43.3852 347.343 44.7853 346.632 46.665C345.972 48.5444 345.64 50.8553 345.64 53.5977C345.64 56.3411 345.971 58.6554 346.632 60.5352C347.343 62.4139 348.335 63.8348 349.604 64.7998C350.925 65.7143 352.475 66.1709 354.253 66.1709C356.945 66.1709 359.053 65.0544 360.577 62.8193C362.152 60.5839 362.941 57.5097 362.941 53.5977C362.941 49.6859 362.152 46.6113 360.577 44.376C359.053 42.1413 356.945 41.0244 354.253 41.0244Z" fill="black"/>
<path fill-rule="evenodd" clip-rule="evenodd" d="M97.1641 32.2617C101.329 32.2619 104.963 33.1469 108.062 34.9248C111.16 36.7028 113.571 39.1953 115.298 42.3955C117.025 45.5453 117.892 49.2794 117.892 53.5977C117.892 57.9161 117.025 61.6782 115.298 64.8789C113.571 68.0781 111.159 70.567 108.062 72.3447C104.963 74.0719 101.33 74.9383 97.1641 74.9385C92.9985 74.9385 89.3655 74.0717 86.2666 72.3447C83.1679 70.5668 80.7518 68.0791 79.0244 64.8789C77.297 61.6782 76.4365 57.9161 76.4365 53.5977C76.4366 49.2796 77.2972 45.5452 79.0244 42.3955C80.7518 39.1948 83.1675 36.703 86.2666 34.9248C89.3652 33.1475 92.999 32.2617 97.1641 32.2617ZM97.1641 41.0244C94.319 41.0244 92.1062 42.1406 90.5312 44.376C88.9564 46.5605 88.172 49.6352 88.1719 53.5977C88.1719 57.5594 88.9571 60.6592 90.5312 62.8945C92.1062 65.0789 94.3191 66.1709 97.1641 66.1709C100.008 66.1705 102.217 65.0786 103.792 62.8945C105.367 60.6591 106.156 57.5601 106.156 53.5977C106.156 49.6351 105.367 46.5605 103.792 44.376C102.217 42.1416 100.008 41.0248 97.1641 41.0244Z" fill="black"/>
<path d="M216.348 32.2617C220.209 32.2617 223.437 32.8678 226.028 34.0869C228.67 35.3062 230.701 36.9856 232.123 39.1191C233.596 41.202 234.514 43.5889 234.87 46.2812L223.36 46.7402C223.208 45.4202 222.802 44.3019 222.143 43.3877C221.533 42.4226 220.744 41.6818 219.779 41.1738C218.814 40.6153 217.644 40.3359 216.272 40.3359C214.241 40.3361 212.667 40.7698 211.55 41.6328C210.483 42.4455 209.949 43.538 209.948 44.9092C209.948 45.9242 210.176 46.7637 210.632 47.4238C211.14 48.0332 211.954 48.5429 213.071 48.9492C214.189 49.3556 215.69 49.6874 217.569 49.9414C221.938 50.551 225.393 51.4127 227.934 52.5303C230.524 53.5969 232.376 54.9451 233.494 56.5703C234.612 58.1959 235.175 60.2024 235.175 62.5898C235.175 65.2317 234.41 67.4688 232.886 69.2979C231.362 71.126 229.229 72.5222 226.486 73.4873C223.794 74.4525 220.59 74.9384 216.882 74.9385C212.666 74.9383 209.133 74.351 206.288 73.1826C203.444 71.9634 201.258 70.3374 199.734 68.3057C198.262 66.2231 197.424 63.8354 197.221 61.1436L208.807 60.7598C209.162 62.6902 209.975 64.1909 211.245 65.2578C212.515 66.324 214.394 66.8582 216.882 66.8584C218.914 66.8584 220.492 66.5266 221.609 65.8662C222.777 65.2057 223.36 64.1904 223.36 62.8193C223.36 61.9557 223.157 61.2434 222.751 60.6846C222.344 60.0753 221.531 59.5693 220.312 59.1631C219.144 58.7059 217.392 58.297 215.056 57.9414C210.737 57.1793 207.356 56.2895 204.917 55.2734C202.479 54.2575 200.75 52.9387 199.734 51.3135C198.718 49.6878 198.213 47.705 198.213 45.3682C198.213 41.4564 199.71 38.3048 202.707 35.917C205.755 33.4786 210.303 32.262 216.348 32.2617Z" fill="black"/>
<path fill-rule="evenodd" clip-rule="evenodd" d="M306.363 32.2617C310.529 32.2617 314.162 33.1472 317.261 34.9248C320.36 36.7029 322.775 39.1949 324.502 42.3955C326.229 45.5452 327.091 49.2797 327.091 53.5977C327.091 57.9161 326.229 61.6782 324.502 64.8789C322.775 68.079 320.359 70.5668 317.261 72.3447C314.162 74.0719 310.529 74.9385 306.363 74.9385C302.197 74.9384 298.565 74.0721 295.466 72.3447C292.367 70.5667 289.952 68.0791 288.225 64.8789C286.497 61.6782 285.636 57.9161 285.636 53.5977C285.636 49.2799 286.498 45.5451 288.225 42.3955C289.952 39.1949 292.367 36.7029 295.466 34.9248C298.565 33.147 302.198 32.2618 306.363 32.2617ZM306.363 41.0244C303.519 41.0245 301.309 42.1415 299.734 44.376C298.16 46.5605 297.371 49.6352 297.371 53.5977C297.371 57.5602 298.16 60.6591 299.734 62.8945C301.309 65.079 303.518 66.1708 306.363 66.1709C309.208 66.1709 311.417 65.0791 312.992 62.8945C314.567 60.6591 315.355 57.5605 315.355 53.5977C315.355 49.6352 314.567 46.5605 312.992 44.376C311.417 42.1416 309.208 41.0244 306.363 41.0244Z" fill="black"/>
<path fill-rule="evenodd" clip-rule="evenodd" d="M497.049 32.2617C501.214 32.2618 504.847 33.1471 507.946 34.9248C511.045 36.7029 513.46 39.195 515.188 42.3955C516.914 45.5451 517.776 49.2799 517.776 53.5977C517.776 57.9161 516.915 61.6782 515.188 64.8789C513.46 68.0791 511.045 70.5667 507.946 72.3447C504.847 74.072 501.215 74.9384 497.049 74.9385C492.883 74.9385 489.25 74.0719 486.151 72.3447C483.053 70.5668 480.637 68.079 478.91 64.8789C477.183 61.6782 476.321 57.9161 476.321 53.5977C476.321 49.2797 477.183 45.5452 478.91 42.3955C480.638 39.1949 483.052 36.703 486.151 34.9248C489.25 33.1472 492.884 32.2617 497.049 32.2617ZM497.049 41.0244C494.205 41.0245 491.996 42.1418 490.421 44.376C488.846 46.5605 488.057 49.6351 488.057 53.5977C488.057 57.5605 488.846 60.6591 490.421 62.8945C491.996 65.0788 494.204 66.1709 497.049 66.1709C499.894 66.1708 502.103 65.079 503.678 62.8945C505.253 60.6591 506.041 57.5602 506.041 53.5977C506.041 49.6352 505.253 46.5605 503.678 44.376C502.103 42.1415 499.893 41.0245 497.049 41.0244Z" fill="black"/>
<path fill-rule="evenodd" clip-rule="evenodd" d="M595.483 32.2617C601.58 32.2617 606.155 33.7096 609.203 36.6055C612.301 39.5009 613.851 43.7417 613.852 49.3281V63.2783C613.852 64.4456 614.03 65.2313 614.386 65.6377C614.792 65.9929 615.374 66.1708 616.136 66.1709H617.278V74.0205C616.923 74.122 616.339 74.2237 615.527 74.3252C614.765 74.4268 614 74.4795 613.238 74.4795C611.614 74.4792 610.091 74.1997 608.67 73.6416C607.298 73.0827 606.177 72.1403 605.313 70.8193C604.804 70.0089 604.446 69.0031 604.237 67.8027C603.733 68.8183 603.078 69.7518 602.267 70.5947C600.997 71.9654 599.32 73.0302 597.238 73.792C595.207 74.5538 592.843 74.9383 590.151 74.9385C585.935 74.9384 582.476 73.9716 579.783 72.041C577.142 70.0599 575.824 67.3159 575.823 63.8115C575.823 60.2044 576.94 57.4335 579.175 55.5029C581.461 53.5216 584.815 52.0737 589.234 51.1592L602.421 48.5703C602.421 45.929 601.81 43.9459 600.591 42.625C599.422 41.2532 597.719 40.5654 595.483 40.5654C593.299 40.5655 591.596 41.0759 590.377 42.0918C589.158 43.0571 588.372 44.5057 588.017 46.4355L576.507 45.9023C577.269 41.4314 579.28 38.0538 582.531 35.7676C585.833 33.4309 590.149 32.2618 595.483 32.2617ZM593.119 57.7119C591.291 58.0676 589.895 58.6787 588.93 59.542C588.015 60.3548 587.559 61.4233 587.559 62.7441C587.559 64.1154 588.015 65.1844 588.93 65.9463C589.844 66.7079 591.168 67.0879 592.895 67.0879C594.774 67.0877 596.425 66.7316 597.848 66.0205C599.27 65.2586 600.386 64.1659 601.199 62.7441C602.012 61.3216 602.421 59.6425 602.421 57.7119V55.7324L593.119 57.7119Z" fill="black"/>
<path d="M24.4668 58.0166L33.8428 19.9131H43.9775L53.4287 58.0166L62.6504 19.9131H74.7646L60.2109 74.0205H47.7129L38.8701 39.4238L30.0322 74.0205H17.6846L3.05566 19.9131H15.1699L24.4668 58.0166Z" fill="black"/>
<path d="M136.097 41.4961C136.774 39.0686 137.696 37.2071 138.879 35.917C140.555 34.0888 142.866 33.1743 145.812 33.1738H149.548V42.625H145.812C143.679 42.6252 141.926 42.9042 140.555 43.4629C139.183 44.0217 138.144 44.9119 137.433 46.1309C136.772 47.3502 136.44 49.0012 136.44 51.084V74.0205H125.01V33.1738H135.832L136.097 41.4961Z" fill="black"/>
<path d="M166.954 49.9414L182.121 33.1738H195.836L179.986 50.0166L196.295 74.0205H183.797L172.595 56.4951L166.954 62.5146V74.0205H155.523V19.9131H166.954V49.9414Z" fill="black"/>
<path d="M253.657 38.1133C253.91 37.657 254.19 37.2276 254.495 36.8301C255.714 35.3072 257.212 34.165 258.989 33.4033C260.818 32.6412 262.801 32.2617 264.935 32.2617C267.983 32.2618 270.523 32.9205 272.555 34.2412C274.587 35.5621 276.113 37.3906 277.129 39.7275C278.196 42.0646 278.729 44.7349 278.729 47.7324V74.0205H267.298V50.4756C267.298 47.4275 266.813 45.1375 265.848 43.6133C264.933 42.0905 263.358 41.3282 261.124 41.3281C258.787 41.3281 256.959 42.1174 255.638 43.6924C254.317 45.2673 253.657 47.6297 253.657 50.7793V74.0205H242.222V19.9131H253.657V38.1133Z" fill="black"/>
<path d="M406.056 20C412.559 20 418.446 21.4907 422.104 24.6406C425.811 27.7902 427.669 32.1069 427.669 37.5928C427.669 41.1999 426.827 44.3513 425.15 47.0439C423.525 49.6856 421.138 51.7455 417.988 53.2188C414.889 54.6411 411.18 55.3525 406.861 55.3525H396.802V74.0205H385.217V45.5977H396.802H406.178C409.225 45.5973 411.588 44.9337 413.265 43.6133C414.94 42.2416 415.779 40.2336 415.779 37.5928C415.779 35.0034 414.94 33.0482 413.265 31.7275C411.639 30.3563 409.154 29.5003 406.056 29.5V20Z" fill="black"/>
<path d="M445.755 74.0205H434.323V33.1738H445.755V74.0205Z" fill="black"/>
<path d="M466.817 62.1357C466.818 63.3539 467.097 64.2169 467.655 64.7246C468.214 65.2322 469.027 65.4872 470.094 65.4873H472.837V74.0205H466.055C462.702 74.0205 460.084 73.1833 458.204 71.5068C456.325 69.8302 455.387 67.1119 455.387 63.3525V19.9131H466.817V62.1357Z" fill="black"/>
<path d="M539.708 33.1738H550.456V41.708H539.708V60.3809C539.708 62.3618 540.117 63.7087 540.93 64.4199C541.793 65.1308 543.064 65.4873 544.74 65.4873H550.456V74.0205H540.546C536.331 74.0202 533.231 73.0578 531.25 71.1279C529.269 69.1465 528.277 66.0196 528.277 61.752V41.708H521.724V33.1738H528.277V23.5732H539.708V33.1738Z" fill="black"/>
<path d="M570.235 74.0205H557.812V62.3604H570.235V74.0205Z" fill="black"/>
<path d="M634.116 74.0205H622.686V33.1738H634.116V74.0205Z" fill="black"/>
<path d="M445.904 28.1465H434.094V19H445.904V28.1465Z" fill="black"/>
<path d="M634.271 28.1465H622.456V19H634.271V28.1465Z" fill="black"/>
</svg>
